<?xml version="1.0" encoding="utf-8"?>
<!-- Generator: Adobe Illustrator 16.0.0, SVG Export Plug-In . SVG Version: 6.00 Build 0)  -->
<!DOCTYPE svg PUBLIC "-//W3C//DTD SVG 1.1//EN" "http://www.w3.org/Graphics/SVG/1.1/DTD/svg11.dtd">
<svg version="1.1" id="Layer_1" xmlns="http://www.w3.org/2000/svg" xmlns:xlink="http://www.w3.org/1999/xlink" x="0px" y="0px"
	 width="150px" height="70.585px" viewBox="0 0 150 70.585" enable-background="new 0 0 150 70.585" xml:space="preserve">
<g>
	<polygon fill="#7B0099" points="76.589,25.522 88.008,33.125 99.316,27.246 99.316,14.095 88.795,6.873 88.795,20.049 	"/>
	<polygon fill="#7B0099" points="124.743,12.877 124.743,0.731 114.35,7.224 104.016,0.731 104.016,12.743 114.35,19.095 	"/>
	<polygon fill="#7B0099" points="139.083,11.718 139.083,22.412 150,30.595 139.214,36.14 128.178,28.919 128.178,17.596 	"/>
	<g>
		<path fill="#404041" d="M13.514,38.701c0.789,0,1.452-0.289,1.992-0.869c0.547-0.58,0.82-1.292,0.82-2.121
			c0-0.854-0.259-1.562-0.781-2.117c-0.523-0.558-1.163-0.838-1.92-0.838c-0.782,0-1.47,0.298-2.048,0.892
			c-0.583,0.596-0.872,1.281-0.872,2.063c0,0.829,0.275,1.541,0.833,2.121C12.099,38.412,12.756,38.701,13.514,38.701z"/>
		<path fill="#404041" d="M138.964,43.258c-1.732-1.138-4.354-1.731-7.869-1.777h-22.528l-0.233,4.877h19.884
			c2.867-0.024,4.832,0.056,5.886,0.229c1.061,0.181,2.011,0.775,2.869,1.795c0.854,1.023,1.209,2.358,1.066,4.005
			c-0.144,1.652-0.604,2.817-1.387,3.508c-0.784,0.688-2.256,1.034-4.416,1.034H96.986c0.009-0.217,0.015-0.434,0.015-0.656
			c0-6.571-4.205-11.089-10.421-11.089c-5.948,0-10.734,4.248-10.734,11.447c0,0.101,0,0.198,0.002,0.298H65.227V26.458h-4.485
			v30.471H50.623v-0.021v-5.404c0-5.997-3.938-10.301-9.522-10.301c-5.812,0-10.252,4.12-10.252,10.163s4.486,10.667,10.023,10.667
			h4.898c-0.733,2.424-1.899,4.795-6.412,4.795v3.758c8.113,0,10.624-3.519,11.311-8.743v-0.07h26.191
			c1.658,3.783,5.186,5.996,9.361,5.996c3.792,0,7.8-1.864,9.682-5.996h38.789c3.628-0.352,5.92-2.518,7.083-4.843
			C143.768,50.777,142.833,46.227,138.964,43.258z M45.494,57.098h-4.531c-2.747,0-4.897-2.848-4.897-6.008
			c0-3.066,1.922-5.172,4.944-5.172c2.655,0,4.211,1.922,4.485,4.623V57.098z M86.404,63.672c-3.321,0-5.64-3.088-5.64-7.179
			c0-3.512,1.74-7.221,5.716-7.221c4.015,0,5.598,3.976,5.598,7.14C92.078,60.623,89.645,63.672,86.404,63.672z"/>
		<path fill="#404041" d="M125.9,64.545c-0.78,0-1.465,0.293-2.046,0.892c-0.582,0.592-0.874,1.28-0.874,2.064
			c0,0.827,0.28,1.531,0.839,2.115c0.556,0.581,1.216,0.876,1.975,0.876c0.783,0,1.448-0.295,1.992-0.876
			c0.545-0.584,0.817-1.288,0.817-2.115c0-0.855-0.257-1.562-0.782-2.121C127.298,64.82,126.658,64.545,125.9,64.545z"/>
		<path fill="#404041" d="M21.877,55.85c0,2.679-0.66,4.986-2.021,6.919c-1.605,2.185-3.706,3.296-6.302,3.296
			c-2.634,0-4.734-1.111-6.342-3.296c-1.36-1.933-2.06-4.24-2.06-6.919V43.216H0.498v13.169c0,3.994,1.319,7.332,3.916,10.051
			c2.512,2.678,5.56,4.037,9.141,4.037c3.627,0,6.673-1.402,9.186-4.201c2.513-2.761,3.791-6.057,3.791-9.887V43.216h-4.654V55.85z"
			/>
	</g>
</g>
</svg>
